<?xml version="1.0" standalone="no"?>
<!DOCTYPE svg PUBLIC "-//W3C//DTD SVG 20010904//EN"
 "http://www.w3.org/TR/2001/REC-SVG-20010904/DTD/svg10.dtd">
<svg version="1.0" xmlns="http://www.w3.org/2000/svg"
 width="512.000000pt" height="512.000000pt" viewBox="0 0 512.000000 512.000000"
 preserveAspectRatio="xMidYMid meet">
<metadata>
Created by potrace 1.14, written by Peter Selinger 2001-2017
</metadata>
<g transform="translate(0.000000,512.000000) scale(0.100000,-0.100000)"
fill="#000000" stroke="none">
<path d="M2377 5109 c-245 -28 -517 -124 -723 -255 -378 -239 -661 -646 -754
-1086 -78 -363 -30 -763 129 -1089 21 -41 356 -653 746 -1359 566 -1023 716
-1287 740 -1302 40 -25 91 -17 126 19 24 26 1343 2428 1443 2629 313 630 193
1407 -296 1919 -153 160 -284 258 -480 356 -283 142 -626 204 -931 168z m427
-550 c464 -94 829 -473 912 -950 24 -136 15 -350 -20 -482 -140 -539 -635
-908 -1186 -884 -628 27 -1120 539 -1120 1166 0 195 35 351 117 519 87 178
236 350 395 455 181 119 312 165 573 201 58 8 231 -5 329 -25z"/>
<path d="M2420 4156 c-160 -35 -268 -94 -386 -211 -78 -77 -98 -105 -137 -185
-54 -111 -78 -205 -80 -313 -2 -77 -1 -79 31 -108 60 -54 85 -46 291 91 194
129 218 154 207 216 -4 19 -19 43 -37 58 -26 22 -40 26 -100 26 -38 0 -69 4
-69 8 0 14 94 100 145 131 158 99 391 99 550 1 28 -17 86 -69 131 -116 76 -79
83 -84 122 -84 57 0 101 39 108 95 7 52 -29 108 -133 205 -83 77 -210 147
-318 176 -84 22 -245 27 -325 10z"/>
<path d="M2981 3401 c-99 -66 -185 -129 -190 -140 -6 -11 -11 -38 -11 -61 0
-50 29 -82 108 -119 29 -14 52 -28 52 -32 0 -10 -74 -69 -120 -96 -146 -87
-349 -89 -515 -6 -29 15 -86 62 -137 114 -92 93 -119 107 -171 92 -37 -10 -77
-64 -77 -103 0 -59 114 -192 231 -268 135 -89 286 -128 453 -119 373 20 664
306 701 688 10 108 -28 169 -107 169 -30 0 -68 -21 -217 -119z"/>
</g>
</svg>
